<?xml version="1.0" standalone="no"?>
<!DOCTYPE svg PUBLIC "-//W3C//DTD SVG 1.1//EN"
"http://www.w3.org/Graphics/SVG/1.1/DTD/svg11.dtd">

<svg width="302" height="136" view_box="0 0 302 136"
xmlns="http://www.w3.org/2000/svg"
xmlns:link="http://www.w3.org/1999/xlink">\n\n<desc>Généré par Mocodo 2.3.7 le Sat, 27 Mar 2021 08:51:35</desc>

<rect id="frame" x="0" y="0" width="302" height="136" fill="#f7f7f7" stroke="none" stroke-width="0"/>

<!-- Association POSSESS -->
<line x1="48" y1="68" x2="155" y2="68" stroke="#8073ac" stroke-width="2"/>
<text x="92" y="85.0" fill="#b35806" font-family="Verdana" font-size="12">0,N</text>
<line x1="258" y1="68" x2="155" y2="68" stroke="#8073ac" stroke-width="2"/>
<text x="196" y="85.0" fill="#b35806" font-family="Verdana" font-size="12">1,N</text>
<g id="association-POSSESS">
	<path d="M 177 43 a 14 14 90 0 1 14 14 V 68 h -72 V 57 a 14 14 90 0 1 14 -14" fill="#b2abd2" stroke="#b2abd2" stroke-width="0"/>
	<path d="M 191 68.0 v 11 a 14 14 90 0 1 -14 14 H 133 a 14 14 90 0 1 -14 -14 V 68.0 H 72" fill="#d8daeb" stroke="#d8daeb" stroke-width="0"/>
	<rect x="119" y="43" width="72" height="50" fill="none" rx="14" stroke="#8073ac" stroke-width="2"/>
	<line x1="119" y1="68" x2="191" y2="68" stroke="#8073ac" stroke-width="1"/>
	<text x="126" y="60.7" fill="#000000" font-family="Verdana" font-size="12">POSSESS</text>
</g>

<!-- Entity ARTICLE -->
<g id="entity-ARTICLE">
	<g id="frame-ARTICLE">
		<rect x="9" y="9" width="78" height="25" fill="#fdb863" stroke="#fdb863" stroke-width="0"/>
		<rect x="9" y="34.0" width="78" height="93" fill="#fee0b6" stroke="#fee0b6" stroke-width="0"/>
		<rect x="9" y="9" width="78" height="118" fill="none" stroke="#e08214" stroke-width="2"/>
		<line x1="9" y1="34" x2="87" y2="34" stroke="#e08214" stroke-width="1"/>
	</g>
	<text x="21" y="26.7" fill="#000000" font-family="Verdana" font-size="12">ARTICLE</text>
	<text x="14" y="51.7" fill="#000000" font-family="Verdana" font-size="12">title</text>
	<line x1="14" y1="54" x2="38" y2="54" stroke="#000000" stroke-width="1"/>
	<text x="14" y="68.8" fill="#000000" font-family="Verdana" font-size="12">description</text>
	<text x="14" y="85.8" fill="#000000" font-family="Verdana" font-size="12">image</text>
	<text x="14" y="102.8" fill="#000000" font-family="Verdana" font-size="12">text</text>
	<text x="14" y="119.8" fill="#000000" font-family="Verdana" font-size="12">country</text>
</g>

<!-- Entity COUNTRY -->
<g id="entity-COUNTRY">
	<g id="frame-COUNTRY">
		<rect x="223" y="34" width="70" height="25" fill="#fdb863" stroke="#fdb863" stroke-width="0"/>
		<rect x="223" y="59.0" width="70" height="43" fill="#fee0b6" stroke="#fee0b6" stroke-width="0"/>
		<rect x="223" y="34" width="70" height="68" fill="none" stroke="#e08214" stroke-width="2"/>
		<line x1="223" y1="59" x2="293" y2="59" stroke="#e08214" stroke-width="1"/>
	</g>
	<text x="228" y="51.7" fill="#000000" font-family="Verdana" font-size="12">COUNTRY</text>
	<text x="228" y="76.8" fill="#000000" font-family="Verdana" font-size="12">name</text>
	<line x1="228" y1="79" x2="263" y2="79" stroke="#000000" stroke-width="1"/>
	<text x="228" y="93.8" fill="#000000" font-family="Verdana" font-size="12">color</text>
</g>
</svg>